<svg width="2755" height="2209" xmlns="http://www.w3.org/2000/svg" xmlns:xlink="http://www.w3.org/1999/xlink" xml:space="preserve" overflow="hidden"><g transform="translate(-270 -64)"><g><g><g><g><text fill="#000000" fill-opacity="1" font-family="Arial,Arial_MSFontService,sans-serif" font-style="normal" font-variant="normal" font-weight="700" font-stretch="normal" font-size="20" text-anchor="start" direction="ltr" writing-mode="lr-tb" unicode-bidi="normal" text-decoration="none" transform="matrix(3.4375 0 0 3.43833 1333.75 309)">TMT Sample Ratios</text><text fill="#1F77B4" fill-opacity="1" font-family="Arial,Arial_MSFontService,sans-serif" font-style="normal" font-variant="normal" font-weight="700" font-stretch="normal" font-size="16" text-anchor="start" direction="ltr" writing-mode="lr-tb" unicode-bidi="normal" text-decoration="none" transform="matrix(3.4375 0 0 3.43833 605 412)">CPNE3 Knockdown</text><text fill="#2CA02C" fill-opacity="1" font-family="Arial,Arial_MSFontService,sans-serif" font-style="normal" font-variant="normal" font-weight="700" font-stretch="normal" font-size="16" text-anchor="start" direction="ltr" writing-mode="lr-tb" unicode-bidi="normal" text-decoration="none" transform="matrix(3.4375 0 0 3.43833 1655.16 412)">Control</text><path d="M395.312 68.75C404.805 68.75 412.5 76.4451 412.5 85.9375L412.5 189.062C412.5 198.555 404.805 206.25 395.312 206.25L85.9375 206.25C76.4451 206.25 68.75 198.555 68.75 189.062L68.75 85.9375C68.75 76.4451 76.4451 68.75 85.9375 68.75Z" fill="#1F77B4" fill-rule="nonzero" fill-opacity="1" transform="matrix(1 0 0 1.00024 618.75 481.067)"/><text fill="#FFFFFF" fill-opacity="1" font-family="Arial,Arial_MSFontService,sans-serif" font-style="normal" font-variant="normal" font-weight="400" font-stretch="normal" font-size="12" text-anchor="start" direction="ltr" writing-mode="lr-tb" unicode-bidi="normal" text-decoration="none" transform="matrix(3.4375 0 0 3.43833 764.844 636)">TMT6-127</text><path d="M395.312 240.625C404.805 240.625 412.5 248.32 412.5 257.812L412.5 360.938C412.5 370.43 404.805 378.125 395.312 378.125L85.9375 378.125C76.4451 378.125 68.75 370.43 68.75 360.938L68.75 257.812C68.75 248.32 76.4451 240.625 85.9375 240.625Z" fill="#1F77B4" fill-rule="nonzero" fill-opacity="1" transform="matrix(1 0 0 1.00024 618.75 481.067)"/><text fill="#FFFFFF" fill-opacity="1" font-family="Arial,Arial_MSFontService,sans-serif" font-style="normal" font-variant="normal" font-weight="400" font-stretch="normal" font-size="12" text-anchor="start" direction="ltr" writing-mode="lr-tb" unicode-bidi="normal" text-decoration="none" transform="matrix(3.4375 0 0 3.43833 764.844 808)">TMT6-129</text><path d="M395.312 412.5C404.805 412.5 412.5 420.195 412.5 429.688L412.5 532.812C412.5 542.305 404.805 550 395.312 550L85.9375 550C76.4451 550 68.75 542.305 68.75 532.812L68.75 429.688C68.75 420.195 76.4451 412.5 85.9375 412.5Z" fill="#1F77B4" fill-rule="nonzero" fill-opacity="1" transform="matrix(1 0 0 1.00024 618.75 481.067)"/><text fill="#FFFFFF" fill-opacity="1" font-family="Arial,Arial_MSFontService,sans-serif" font-style="normal" font-variant="normal" font-weight="400" font-stretch="normal" font-size="12" text-anchor="start" direction="ltr" writing-mode="lr-tb" unicode-bidi="normal" text-decoration="none" transform="matrix(3.4375 0 0 3.43833 764.844 980)">TMT6-131</text><path d="M1289.06 68.75C1298.55 68.75 1306.25 76.4451 1306.25 85.9375L1306.25 189.062C1306.25 198.555 1298.55 206.25 1289.06 206.25L979.688 206.25C970.195 206.25 962.5 198.555 962.5 189.062L962.5 85.9375C962.5 76.4451 970.195 68.75 979.688 68.75Z" fill="#2CA02C" fill-rule="nonzero" fill-opacity="1" transform="matrix(1 0 0 1.00024 618.75 481.067)"/><text fill="#FFFFFF" fill-opacity="1" font-family="Arial,Arial_MSFontService,sans-serif" font-style="normal" font-variant="normal" font-weight="400" font-stretch="normal" font-size="12" text-anchor="start" direction="ltr" writing-mode="lr-tb" unicode-bidi="normal" text-decoration="none" transform="matrix(3.4375 0 0 3.43833 1658.59 636)">TMT6-126</text><path d="M1289.06 240.625C1298.55 240.625 1306.25 248.32 1306.25 257.812L1306.25 360.938C1306.25 370.43 1298.55 378.125 1289.06 378.125L979.688 378.125C970.195 378.125 962.5 370.43 962.5 360.938L962.5 257.812C962.5 248.32 970.195 240.625 979.688 240.625Z" fill="#2CA02C" fill-rule="nonzero" fill-opacity="1" transform="matrix(1 0 0 1.00024 618.75 481.067)"/><text fill="#FFFFFF" fill-opacity="1" font-family="Arial,Arial_MSFontService,sans-serif" font-style="normal" font-variant="normal" font-weight="400" font-stretch="normal" font-size="12" text-anchor="start" direction="ltr" writing-mode="lr-tb" unicode-bidi="normal" text-decoration="none" transform="matrix(3.4375 0 0 3.43833 1658.59 808)">TMT6-128</text><path d="M1289.06 412.5C1298.55 412.5 1306.25 420.195 1306.25 429.688L1306.25 532.812C1306.25 542.305 1298.55 550 1289.06 550L979.688 550C970.195 550 962.5 542.305 962.5 532.812L962.5 429.688C962.5 420.195 970.195 412.5 979.688 412.5Z" fill="#2CA02C" fill-rule="nonzero" fill-opacity="1" transform="matrix(1 0 0 1.00024 618.75 481.067)"/><text fill="#FFFFFF" fill-opacity="1" font-family="Arial,Arial_MSFontService,sans-serif" font-style="normal" font-variant="normal" font-weight="400" font-stretch="normal" font-size="12" text-anchor="start" direction="ltr" writing-mode="lr-tb" unicode-bidi="normal" text-decoration="none" transform="matrix(3.4375 0 0 3.43833 1658.59 980)">TMT6-130</text><text fill="#000000" fill-opacity="1" font-family="Arial,Arial_MSFontService,sans-serif" font-style="normal" font-variant="normal" font-weight="700" font-stretch="normal" font-size="14" text-anchor="start" direction="ltr" writing-mode="lr-tb" unicode-bidi="normal" text-decoration="none" transform="matrix(3.4375 0 0 3.43833 2165.62 619)">KD/Control Ratios (1-9):</text><text fill="#000000" fill-opacity="1" font-family="Arial,Arial_MSFontService,sans-serif" font-style="normal" font-variant="normal" font-weight="400" font-stretch="normal" font-size="12" text-anchor="start" direction="ltr" writing-mode="lr-tb" unicode-bidi="normal" text-decoration="none" transform="matrix(3.4375 0 0 3.43833 2165.62 687)">127/126, 127/128, 127/130</text><text fill="#000000" fill-opacity="1" font-family="Arial,Arial_MSFontService,sans-serif" font-style="normal" font-variant="normal" font-weight="400" font-stretch="normal" font-size="12" text-anchor="start" direction="ltr" writing-mode="lr-tb" unicode-bidi="normal" text-decoration="none" transform="matrix(3.4375 0 0 3.43833 2165.62 756)">129/126, 129/128, 129/130</text><text fill="#000000" fill-opacity="1" font-family="Arial,Arial_MSFontService,sans-serif" font-style="normal" font-variant="normal" font-weight="400" font-stretch="normal" font-size="12" text-anchor="start" direction="ltr" writing-mode="lr-tb" unicode-bidi="normal" text-decoration="none" transform="matrix(3.4375 0 0 3.43833 2165.62 825)">131/126, 131/128, 131/130</text><text fill="#000000" fill-opacity="1" font-family="Arial,Arial_MSFontService,sans-serif" font-style="normal" font-variant="normal" font-weight="700" font-stretch="normal" font-size="20" text-anchor="start" direction="ltr" writing-mode="lr-tb" unicode-bidi="normal" text-decoration="none" transform="matrix(3.4375 0 0 3.43833 1232.34 1238)">Label Free Sample Ratios</text><text fill="#E31A1C" fill-opacity="1" font-family="Arial,Arial_MSFontService,sans-serif" font-style="normal" font-variant="normal" font-weight="700" font-stretch="normal" font-size="16" text-anchor="start" direction="ltr" writing-mode="lr-tb" unicode-bidi="normal" text-decoration="none" transform="matrix(3.4375 0 0 3.43833 605 1341)">CPNE3 Knockdown</text><text fill="#FF7F00" fill-opacity="1" font-family="Arial,Arial_MSFontService,sans-serif" font-style="normal" font-variant="normal" font-weight="700" font-stretch="normal" font-size="16" text-anchor="start" direction="ltr" writing-mode="lr-tb" unicode-bidi="normal" text-decoration="none" transform="matrix(3.4375 0 0 3.43833 1655.16 1341)">Control</text><path d="M395.312 68.75C404.805 68.75 412.5 76.4451 412.5 85.9375L412.5 189.062C412.5 198.555 404.805 206.25 395.312 206.25L85.9375 206.25C76.4451 206.25 68.75 198.555 68.75 189.062L68.75 85.9375C68.75 76.4451 76.4451 68.75 85.9375 68.75Z" fill="#E31A1C" fill-rule="nonzero" fill-opacity="1" transform="matrix(1 0 0 1.00024 618.75 1409.42)"/><text fill="#FFFFFF" fill-opacity="1" font-family="Arial,Arial_MSFontService,sans-serif" font-style="normal" font-variant="normal" font-weight="400" font-stretch="normal" font-size="12" text-anchor="start" direction="ltr" writing-mode="lr-tb" unicode-bidi="normal" text-decoration="none" transform="matrix(3.4375 0 0 3.43833 812.969 1564)">KD-1</text><path d="M395.312 240.625C404.805 240.625 412.5 248.32 412.5 257.812L412.5 360.938C412.5 370.43 404.805 378.125 395.312 378.125L85.9375 378.125C76.4451 378.125 68.75 370.43 68.75 360.938L68.75 257.812C68.75 248.32 76.4451 240.625 85.9375 240.625Z" fill="#E31A1C" fill-rule="nonzero" fill-opacity="1" transform="matrix(1 0 0 1.00024 618.75 1409.42)"/><text fill="#FFFFFF" fill-opacity="1" font-family="Arial,Arial_MSFontService,sans-serif" font-style="normal" font-variant="normal" font-weight="400" font-stretch="normal" font-size="12" text-anchor="start" direction="ltr" writing-mode="lr-tb" unicode-bidi="normal" text-decoration="none" transform="matrix(3.4375 0 0 3.43833 812.969 1736)">KD-2</text><path d="M395.312 412.5C404.805 412.5 412.5 420.195 412.5 429.688L412.5 532.812C412.5 542.305 404.805 550 395.312 550L85.9375 550C76.4451 550 68.75 542.305 68.75 532.812L68.75 429.688C68.75 420.195 76.4451 412.5 85.9375 412.5Z" fill="#E31A1C" fill-rule="nonzero" fill-opacity="1" transform="matrix(1 0 0 1.00024 618.75 1409.42)"/><text fill="#FFFFFF" fill-opacity="1" font-family="Arial,Arial_MSFontService,sans-serif" font-style="normal" font-variant="normal" font-weight="400" font-stretch="normal" font-size="12" text-anchor="start" direction="ltr" writing-mode="lr-tb" unicode-bidi="normal" text-decoration="none" transform="matrix(3.4375 0 0 3.43833 812.969 1908)">KD-3</text><path d="M1289.06 68.75C1298.55 68.75 1306.25 76.4451 1306.25 85.9375L1306.25 189.062C1306.25 198.555 1298.55 206.25 1289.06 206.25L979.688 206.25C970.195 206.25 962.5 198.555 962.5 189.062L962.5 85.9375C962.5 76.4451 970.195 68.75 979.688 68.75Z" fill="#FF7F00" fill-rule="nonzero" fill-opacity="1" transform="matrix(1 0 0 1.00024 618.75 1409.42)"/><text fill="#FFFFFF" fill-opacity="1" font-family="Arial,Arial_MSFontService,sans-serif" font-style="normal" font-variant="normal" font-weight="400" font-stretch="normal" font-size="12" text-anchor="start" direction="ltr" writing-mode="lr-tb" unicode-bidi="normal" text-decoration="none" transform="matrix(3.4375 0 0 3.43833 1703.28 1564)">Ctrl-1</text><path d="M1289.06 240.625C1298.55 240.625 1306.25 248.32 1306.25 257.812L1306.25 360.938C1306.25 370.43 1298.55 378.125 1289.06 378.125L979.688 378.125C970.195 378.125 962.5 370.43 962.5 360.938L962.5 257.812C962.5 248.32 970.195 240.625 979.688 240.625Z" fill="#FF7F00" fill-rule="nonzero" fill-opacity="1" transform="matrix(1 0 0 1.00024 618.75 1409.42)"/><text fill="#FFFFFF" fill-opacity="1" font-family="Arial,Arial_MSFontService,sans-serif" font-style="normal" font-variant="normal" font-weight="400" font-stretch="normal" font-size="12" text-anchor="start" direction="ltr" writing-mode="lr-tb" unicode-bidi="normal" text-decoration="none" transform="matrix(3.4375 0 0 3.43833 1703.28 1736)">Ctrl-2</text><path d="M1289.06 412.5C1298.55 412.5 1306.25 420.195 1306.25 429.688L1306.25 532.812C1306.25 542.305 1298.55 550 1289.06 550L979.688 550C970.195 550 962.5 542.305 962.5 532.812L962.5 429.688C962.5 420.195 970.195 412.5 979.688 412.5Z" fill="#FF7F00" fill-rule="nonzero" fill-opacity="1" transform="matrix(1 0 0 1.00024 618.75 1409.42)"/><text fill="#FFFFFF" fill-opacity="1" font-family="Arial,Arial_MSFontService,sans-serif" font-style="normal" font-variant="normal" font-weight="400" font-stretch="normal" font-size="12" text-anchor="start" direction="ltr" writing-mode="lr-tb" unicode-bidi="normal" text-decoration="none" transform="matrix(3.4375 0 0 3.43833 1703.28 1908)">Ctrl-3</text><text fill="#000000" fill-opacity="1" font-family="Arial,Arial_MSFontService,sans-serif" font-style="normal" font-variant="normal" font-weight="700" font-stretch="normal" font-size="14" text-anchor="start" direction="ltr" writing-mode="lr-tb" unicode-bidi="normal" text-decoration="none" transform="matrix(3.4375 0 0 3.43833 2165.62 1547)">KD/Control Ratios (1-9):</text><text fill="#000000" fill-opacity="1" font-family="Arial,Arial_MSFontService,sans-serif" font-style="normal" font-variant="normal" font-weight="400" font-stretch="normal" font-size="12" text-anchor="start" direction="ltr" writing-mode="lr-tb" unicode-bidi="normal" text-decoration="none" transform="matrix(3.4375 0 0 3.43833 2165.62 1616)">KD1/Ctrl1, KD1/Ctrl2, KD1/Ctrl3</text><text fill="#000000" fill-opacity="1" font-family="Arial,Arial_MSFontService,sans-serif" font-style="normal" font-variant="normal" font-weight="400" font-stretch="normal" font-size="12" text-anchor="start" direction="ltr" writing-mode="lr-tb" unicode-bidi="normal" text-decoration="none" transform="matrix(3.4375 0 0 3.43833 2165.62 1684)">KD2/Ctrl1, KD2/Ctrl2, KD2/Ctrl3</text><text fill="#000000" fill-opacity="1" font-family="Arial,Arial_MSFontService,sans-serif" font-style="normal" font-variant="normal" font-weight="400" font-stretch="normal" font-size="12" text-anchor="start" direction="ltr" writing-mode="lr-tb" unicode-bidi="normal" text-decoration="none" transform="matrix(3.4375 0 0 3.43833 2165.62 1753)">KD3/Ctrl1, KD3/Ctrl2, KD3/Ctrl3</text></g></g></g></g></g></svg>